<mxfile host="app.diagrams.net" modified="2022-11-10T11:14:13.531Z" agent="5.0 (Macintosh; Intel Mac OS X 10_15_7) AppleWebKit/537.36 (KHTML, like Gecko) Chrome/107.0.0.0 Safari/537.36" etag="BgQPIjLaGAF4PI2dU50i" version="20.5.3" type="github">
  <diagram name="Page-1" id="74b105a0-9070-1c63-61bc-23e55f88626e">
    <mxGraphModel dx="2102" dy="3858" grid="1" gridSize="10" guides="1" tooltips="1" connect="1" arrows="1" fold="1" page="1" pageScale="1.5" pageWidth="1169" pageHeight="826" background="none" math="0" shadow="0">
      <root>
        <mxCell id="0" style=";html=1;" />
        <mxCell id="1" style=";html=1;" parent="0" />
        <mxCell id="QX7i4axo8P2BEWDOmLLJ-33" style="edgeStyle=orthogonalEdgeStyle;rounded=0;orthogonalLoop=1;jettySize=auto;html=1;entryX=0.5;entryY=1;entryDx=0;entryDy=0;fontSize=22;labelBackgroundColor=none;" edge="1" parent="1" source="QX7i4axo8P2BEWDOmLLJ-1" target="QX7i4axo8P2BEWDOmLLJ-12">
          <mxGeometry relative="1" as="geometry">
            <Array as="points">
              <mxPoint x="235" y="-380" />
              <mxPoint x="955" y="-380" />
            </Array>
          </mxGeometry>
        </mxCell>
        <mxCell id="QX7i4axo8P2BEWDOmLLJ-95" style="edgeStyle=orthogonalEdgeStyle;rounded=0;orthogonalLoop=1;jettySize=auto;html=1;entryX=0;entryY=0.5;entryDx=0;entryDy=0;fontSize=42;" edge="1" parent="1" source="QX7i4axo8P2BEWDOmLLJ-1" target="QX7i4axo8P2BEWDOmLLJ-11">
          <mxGeometry relative="1" as="geometry" />
        </mxCell>
        <mxCell id="QX7i4axo8P2BEWDOmLLJ-1" value="&lt;span style=&quot;font-size: 22px;&quot;&gt;Shopify&lt;/span&gt;" style="rounded=1;whiteSpace=wrap;html=1;fillColor=#fff2cc;strokeColor=#d6b656;labelBackgroundColor=none;" vertex="1" parent="1">
          <mxGeometry x="115" y="-170" width="240" height="100" as="geometry" />
        </mxCell>
        <mxCell id="QX7i4axo8P2BEWDOmLLJ-28" style="edgeStyle=orthogonalEdgeStyle;rounded=0;orthogonalLoop=1;jettySize=auto;html=1;entryX=0;entryY=0.5;entryDx=0;entryDy=0;fontSize=22;labelBackgroundColor=none;" edge="1" parent="1" source="QX7i4axo8P2BEWDOmLLJ-2" target="QX7i4axo8P2BEWDOmLLJ-12">
          <mxGeometry relative="1" as="geometry" />
        </mxCell>
        <mxCell id="QX7i4axo8P2BEWDOmLLJ-2" value="&lt;span style=&quot;font-size: 22px;&quot;&gt;Magento&lt;/span&gt;" style="rounded=1;whiteSpace=wrap;html=1;fillColor=#fff2cc;strokeColor=#d6b656;labelBackgroundColor=none;" vertex="1" parent="1">
          <mxGeometry x="475" y="-170" width="240" height="100" as="geometry" />
        </mxCell>
        <mxCell id="QX7i4axo8P2BEWDOmLLJ-29" style="edgeStyle=orthogonalEdgeStyle;rounded=0;orthogonalLoop=1;jettySize=auto;html=1;entryX=0;entryY=0.5;entryDx=0;entryDy=0;fontSize=22;labelBackgroundColor=none;" edge="1" parent="1" source="QX7i4axo8P2BEWDOmLLJ-3" target="QX7i4axo8P2BEWDOmLLJ-13">
          <mxGeometry relative="1" as="geometry" />
        </mxCell>
        <mxCell id="QX7i4axo8P2BEWDOmLLJ-34" style="edgeStyle=orthogonalEdgeStyle;rounded=0;orthogonalLoop=1;jettySize=auto;html=1;entryX=1;entryY=0.5;entryDx=0;entryDy=0;fontSize=22;labelBackgroundColor=none;exitX=0.5;exitY=0;exitDx=0;exitDy=0;" edge="1" parent="1" source="QX7i4axo8P2BEWDOmLLJ-3" target="QX7i4axo8P2BEWDOmLLJ-12">
          <mxGeometry relative="1" as="geometry">
            <Array as="points">
              <mxPoint x="952" y="-140" />
              <mxPoint x="1110" y="-140" />
              <mxPoint x="1110" y="-580" />
            </Array>
          </mxGeometry>
        </mxCell>
        <mxCell id="QX7i4axo8P2BEWDOmLLJ-3" value="&lt;span style=&quot;font-size: 22px;&quot;&gt;Lazada&lt;span style=&quot;white-space: pre;&quot;&gt;	&lt;/span&gt;&lt;/span&gt;" style="rounded=1;whiteSpace=wrap;html=1;fillColor=#fff2cc;strokeColor=#d6b656;labelBackgroundColor=none;" vertex="1" parent="1">
          <mxGeometry x="832" y="-170" width="240" height="100" as="geometry" />
        </mxCell>
        <mxCell id="QX7i4axo8P2BEWDOmLLJ-31" style="edgeStyle=orthogonalEdgeStyle;rounded=0;orthogonalLoop=1;jettySize=auto;html=1;entryX=1;entryY=0.5;entryDx=0;entryDy=0;fontSize=22;labelBackgroundColor=none;" edge="1" parent="1" source="QX7i4axo8P2BEWDOmLLJ-4" target="QX7i4axo8P2BEWDOmLLJ-13">
          <mxGeometry relative="1" as="geometry">
            <Array as="points">
              <mxPoint x="1315" y="-380" />
              <mxPoint x="1580" y="-380" />
              <mxPoint x="1580" y="-580" />
            </Array>
          </mxGeometry>
        </mxCell>
        <mxCell id="QX7i4axo8P2BEWDOmLLJ-96" style="edgeStyle=orthogonalEdgeStyle;rounded=0;orthogonalLoop=1;jettySize=auto;html=1;entryX=0.75;entryY=1;entryDx=0;entryDy=0;fontSize=42;" edge="1" parent="1" source="QX7i4axo8P2BEWDOmLLJ-4" target="QX7i4axo8P2BEWDOmLLJ-12">
          <mxGeometry relative="1" as="geometry">
            <Array as="points">
              <mxPoint x="1315" y="-310" />
              <mxPoint x="1022" y="-310" />
            </Array>
          </mxGeometry>
        </mxCell>
        <mxCell id="QX7i4axo8P2BEWDOmLLJ-4" value="&lt;span style=&quot;font-size: 22px;&quot;&gt;Shopee&lt;/span&gt;" style="rounded=1;whiteSpace=wrap;html=1;fillColor=#fff2cc;strokeColor=#d6b656;labelBackgroundColor=none;" vertex="1" parent="1">
          <mxGeometry x="1195" y="-170" width="240" height="100" as="geometry" />
        </mxCell>
        <mxCell id="QX7i4axo8P2BEWDOmLLJ-15" style="edgeStyle=orthogonalEdgeStyle;rounded=0;orthogonalLoop=1;jettySize=auto;html=1;fontSize=22;labelBackgroundColor=none;" edge="1" parent="1" source="QX7i4axo8P2BEWDOmLLJ-6" target="QX7i4axo8P2BEWDOmLLJ-10">
          <mxGeometry relative="1" as="geometry" />
        </mxCell>
        <mxCell id="QX7i4axo8P2BEWDOmLLJ-38" style="edgeStyle=orthogonalEdgeStyle;rounded=0;orthogonalLoop=1;jettySize=auto;html=1;entryX=0.5;entryY=0;entryDx=0;entryDy=0;fontSize=22;labelBackgroundColor=none;" edge="1" parent="1" source="QX7i4axo8P2BEWDOmLLJ-6" target="QX7i4axo8P2BEWDOmLLJ-9">
          <mxGeometry relative="1" as="geometry">
            <Array as="points">
              <mxPoint x="837" y="-1140" />
              <mxPoint x="1500" y="-1140" />
            </Array>
          </mxGeometry>
        </mxCell>
        <mxCell id="QX7i4axo8P2BEWDOmLLJ-6" value="" style="shape=or;whiteSpace=wrap;html=1;rotation=-90;horizontal=1;fillColor=#f8cecc;strokeColor=#b85450;labelBackgroundColor=none;" vertex="1" parent="1">
          <mxGeometry x="752" y="-1130" width="170" height="270" as="geometry" />
        </mxCell>
        <mxCell id="QX7i4axo8P2BEWDOmLLJ-40" style="edgeStyle=orthogonalEdgeStyle;rounded=0;orthogonalLoop=1;jettySize=auto;html=1;entryX=0.441;entryY=0.978;entryDx=0;entryDy=0;entryPerimeter=0;fontSize=22;labelBackgroundColor=none;" edge="1" parent="1" source="QX7i4axo8P2BEWDOmLLJ-9" target="QX7i4axo8P2BEWDOmLLJ-6">
          <mxGeometry relative="1" as="geometry" />
        </mxCell>
        <mxCell id="QX7i4axo8P2BEWDOmLLJ-9" value="&lt;span style=&quot;font-size: 22px;&quot;&gt;A2000 ERP&lt;br&gt;&lt;/span&gt;" style="shape=dataStorage;whiteSpace=wrap;html=1;fixedSize=1;rotation=0;fillColor=#e1d5e7;strokeColor=#9673a6;labelBackgroundColor=none;" vertex="1" parent="1">
          <mxGeometry x="1390" y="-1065" width="220" height="160" as="geometry" />
        </mxCell>
        <mxCell id="QX7i4axo8P2BEWDOmLLJ-16" style="edgeStyle=orthogonalEdgeStyle;rounded=0;orthogonalLoop=1;jettySize=auto;html=1;fontSize=22;labelBackgroundColor=none;" edge="1" parent="1" source="QX7i4axo8P2BEWDOmLLJ-10" target="QX7i4axo8P2BEWDOmLLJ-1">
          <mxGeometry relative="1" as="geometry">
            <Array as="points">
              <mxPoint x="195" y="-260" />
              <mxPoint x="195" y="-260" />
            </Array>
          </mxGeometry>
        </mxCell>
        <mxCell id="QX7i4axo8P2BEWDOmLLJ-19" style="edgeStyle=orthogonalEdgeStyle;rounded=0;orthogonalLoop=1;jettySize=auto;html=1;fontSize=22;labelBackgroundColor=none;" edge="1" parent="1" source="QX7i4axo8P2BEWDOmLLJ-10" target="QX7i4axo8P2BEWDOmLLJ-2">
          <mxGeometry relative="1" as="geometry">
            <Array as="points">
              <mxPoint x="195" y="-380" />
              <mxPoint x="595" y="-380" />
            </Array>
          </mxGeometry>
        </mxCell>
        <mxCell id="QX7i4axo8P2BEWDOmLLJ-21" style="edgeStyle=orthogonalEdgeStyle;rounded=0;orthogonalLoop=1;jettySize=auto;html=1;exitX=0.5;exitY=1;exitDx=0;exitDy=0;entryX=0.5;entryY=0;entryDx=0;entryDy=0;fontSize=22;labelBackgroundColor=none;" edge="1" parent="1" source="QX7i4axo8P2BEWDOmLLJ-10" target="QX7i4axo8P2BEWDOmLLJ-4">
          <mxGeometry relative="1" as="geometry">
            <Array as="points">
              <mxPoint x="195" y="-380" />
              <mxPoint x="1315" y="-380" />
            </Array>
          </mxGeometry>
        </mxCell>
        <mxCell id="QX7i4axo8P2BEWDOmLLJ-10" value="&lt;font style=&quot;font-size: 22px;&quot;&gt;Product Management&lt;/font&gt;" style="shape=process;whiteSpace=wrap;html=1;backgroundOutline=1;fillColor=#dae8fc;strokeColor=#6c8ebf;labelBackgroundColor=none;" vertex="1" parent="1">
          <mxGeometry x="60" y="-630" width="270" height="100" as="geometry" />
        </mxCell>
        <mxCell id="QX7i4axo8P2BEWDOmLLJ-93" style="edgeStyle=orthogonalEdgeStyle;rounded=0;orthogonalLoop=1;jettySize=auto;html=1;entryX=0.322;entryY=0.018;entryDx=0;entryDy=0;entryPerimeter=0;fontSize=42;" edge="1" parent="1" source="QX7i4axo8P2BEWDOmLLJ-11" target="QX7i4axo8P2BEWDOmLLJ-6">
          <mxGeometry relative="1" as="geometry">
            <Array as="points">
              <mxPoint x="510" y="-965" />
            </Array>
          </mxGeometry>
        </mxCell>
        <mxCell id="QX7i4axo8P2BEWDOmLLJ-94" style="edgeStyle=orthogonalEdgeStyle;rounded=0;orthogonalLoop=1;jettySize=auto;html=1;entryX=0;entryY=0.5;entryDx=0;entryDy=0;fontSize=42;" edge="1" parent="1" source="QX7i4axo8P2BEWDOmLLJ-11" target="QX7i4axo8P2BEWDOmLLJ-3">
          <mxGeometry relative="1" as="geometry">
            <Array as="points">
              <mxPoint x="565" y="-490" />
              <mxPoint x="810" y="-490" />
              <mxPoint x="810" y="-120" />
            </Array>
          </mxGeometry>
        </mxCell>
        <mxCell id="QX7i4axo8P2BEWDOmLLJ-11" value="&lt;span style=&quot;font-size: 22px;&quot;&gt;Stock Management&lt;/span&gt;" style="shape=process;whiteSpace=wrap;html=1;backgroundOutline=1;fillColor=#dae8fc;strokeColor=#6c8ebf;labelBackgroundColor=none;" vertex="1" parent="1">
          <mxGeometry x="430" y="-630" width="270" height="100" as="geometry" />
        </mxCell>
        <mxCell id="QX7i4axo8P2BEWDOmLLJ-35" style="edgeStyle=orthogonalEdgeStyle;rounded=0;orthogonalLoop=1;jettySize=auto;html=1;entryX=0;entryY=0.5;entryDx=0;entryDy=0;entryPerimeter=0;fontSize=22;labelBackgroundColor=none;" edge="1" parent="1" source="QX7i4axo8P2BEWDOmLLJ-12" target="QX7i4axo8P2BEWDOmLLJ-6">
          <mxGeometry relative="1" as="geometry" />
        </mxCell>
        <mxCell id="QX7i4axo8P2BEWDOmLLJ-12" value="&lt;span style=&quot;font-size: 22px;&quot;&gt;Customer Management&lt;/span&gt;" style="shape=process;whiteSpace=wrap;html=1;backgroundOutline=1;fillColor=#dae8fc;strokeColor=#6c8ebf;labelBackgroundColor=none;" vertex="1" parent="1">
          <mxGeometry x="820" y="-630" width="270" height="100" as="geometry" />
        </mxCell>
        <mxCell id="QX7i4axo8P2BEWDOmLLJ-37" style="edgeStyle=orthogonalEdgeStyle;rounded=0;orthogonalLoop=1;jettySize=auto;html=1;entryX=0;entryY=0.25;entryDx=0;entryDy=0;entryPerimeter=0;fontSize=22;labelBackgroundColor=none;" edge="1" parent="1" source="QX7i4axo8P2BEWDOmLLJ-13" target="QX7i4axo8P2BEWDOmLLJ-6">
          <mxGeometry relative="1" as="geometry">
            <Array as="points">
              <mxPoint x="1425" y="-770" />
              <mxPoint x="770" y="-770" />
            </Array>
          </mxGeometry>
        </mxCell>
        <mxCell id="QX7i4axo8P2BEWDOmLLJ-13" value="&lt;span style=&quot;font-size: 22px;&quot;&gt;Order Management&lt;/span&gt;" style="shape=process;whiteSpace=wrap;html=1;backgroundOutline=1;fillColor=#dae8fc;strokeColor=#6c8ebf;labelBackgroundColor=none;" vertex="1" parent="1">
          <mxGeometry x="1290" y="-630" width="270" height="100" as="geometry" />
        </mxCell>
        <mxCell id="QX7i4axo8P2BEWDOmLLJ-14" value="A2000 Seller Portal" style="text;html=1;strokeColor=none;fillColor=none;align=center;verticalAlign=middle;whiteSpace=wrap;rounded=0;fontSize=22;labelBackgroundColor=none;" vertex="1" parent="1">
          <mxGeometry x="762" y="-1000" width="150" height="30" as="geometry" />
        </mxCell>
        <mxCell id="QX7i4axo8P2BEWDOmLLJ-41" value="Customers &amp;amp; Orders" style="text;html=1;strokeColor=none;fillColor=none;align=center;verticalAlign=middle;whiteSpace=wrap;rounded=0;fontSize=22;labelBackgroundColor=none;" vertex="1" parent="1">
          <mxGeometry x="1060" y="-1180" width="260" height="30" as="geometry" />
        </mxCell>
        <mxCell id="QX7i4axo8P2BEWDOmLLJ-42" value="Products and Stocks&lt;br&gt;" style="text;html=1;strokeColor=none;fillColor=none;align=center;verticalAlign=middle;whiteSpace=wrap;rounded=0;fontSize=22;labelBackgroundColor=none;" vertex="1" parent="1">
          <mxGeometry x="1060" y="-980" width="260" height="30" as="geometry" />
        </mxCell>
        <mxCell id="QX7i4axo8P2BEWDOmLLJ-65" style="edgeStyle=orthogonalEdgeStyle;rounded=0;orthogonalLoop=1;jettySize=auto;html=1;entryX=0.5;entryY=0;entryDx=0;entryDy=0;fontSize=22;" edge="1" parent="1" source="QX7i4axo8P2BEWDOmLLJ-51" target="QX7i4axo8P2BEWDOmLLJ-53">
          <mxGeometry relative="1" as="geometry">
            <Array as="points">
              <mxPoint x="895" y="-2040" />
            </Array>
          </mxGeometry>
        </mxCell>
        <mxCell id="QX7i4axo8P2BEWDOmLLJ-67" style="edgeStyle=orthogonalEdgeStyle;rounded=0;orthogonalLoop=1;jettySize=auto;html=1;exitX=0.922;exitY=1.059;exitDx=0;exitDy=0;entryX=0.824;entryY=-0.002;entryDx=0;entryDy=0;fontSize=22;entryPerimeter=0;exitPerimeter=0;" edge="1" parent="1" source="QX7i4axo8P2BEWDOmLLJ-51" target="QX7i4axo8P2BEWDOmLLJ-53">
          <mxGeometry relative="1" as="geometry" />
        </mxCell>
        <mxCell id="QX7i4axo8P2BEWDOmLLJ-68" style="edgeStyle=orthogonalEdgeStyle;rounded=0;orthogonalLoop=1;jettySize=auto;html=1;exitX=0.25;exitY=1;exitDx=0;exitDy=0;fontSize=22;" edge="1" parent="1" source="QX7i4axo8P2BEWDOmLLJ-51" target="QX7i4axo8P2BEWDOmLLJ-53">
          <mxGeometry relative="1" as="geometry">
            <Array as="points">
              <mxPoint x="400" y="-2220" />
              <mxPoint x="400" y="-2130" />
              <mxPoint x="690" y="-2130" />
            </Array>
          </mxGeometry>
        </mxCell>
        <mxCell id="QX7i4axo8P2BEWDOmLLJ-51" value="&lt;font style=&quot;font-size: 22px;&quot;&gt;Income Request API Gateway&lt;/font&gt;" style="rounded=0;whiteSpace=wrap;html=1;fillColor=#f5f5f5;strokeColor=#666666;fontColor=#333333;" vertex="1" parent="1">
          <mxGeometry x="260" y="-2330" width="1270" height="110" as="geometry" />
        </mxCell>
        <mxCell id="QX7i4axo8P2BEWDOmLLJ-69" style="edgeStyle=orthogonalEdgeStyle;rounded=0;orthogonalLoop=1;jettySize=auto;html=1;entryX=0.5;entryY=0;entryDx=0;entryDy=0;fontSize=22;" edge="1" parent="1" source="QX7i4axo8P2BEWDOmLLJ-53" target="QX7i4axo8P2BEWDOmLLJ-57">
          <mxGeometry relative="1" as="geometry" />
        </mxCell>
        <mxCell id="QX7i4axo8P2BEWDOmLLJ-70" style="edgeStyle=orthogonalEdgeStyle;rounded=0;orthogonalLoop=1;jettySize=auto;html=1;entryX=0.5;entryY=0;entryDx=0;entryDy=0;fontSize=22;" edge="1" parent="1" source="QX7i4axo8P2BEWDOmLLJ-53" target="QX7i4axo8P2BEWDOmLLJ-59">
          <mxGeometry relative="1" as="geometry" />
        </mxCell>
        <mxCell id="QX7i4axo8P2BEWDOmLLJ-71" style="edgeStyle=orthogonalEdgeStyle;rounded=0;orthogonalLoop=1;jettySize=auto;html=1;exitX=0.75;exitY=1;exitDx=0;exitDy=0;fontSize=22;" edge="1" parent="1" source="QX7i4axo8P2BEWDOmLLJ-53" target="QX7i4axo8P2BEWDOmLLJ-60">
          <mxGeometry relative="1" as="geometry" />
        </mxCell>
        <mxCell id="QX7i4axo8P2BEWDOmLLJ-72" style="edgeStyle=orthogonalEdgeStyle;rounded=0;orthogonalLoop=1;jettySize=auto;html=1;entryX=0.5;entryY=0;entryDx=0;entryDy=0;fontSize=22;" edge="1" parent="1" source="QX7i4axo8P2BEWDOmLLJ-53" target="QX7i4axo8P2BEWDOmLLJ-61">
          <mxGeometry relative="1" as="geometry" />
        </mxCell>
        <mxCell id="QX7i4axo8P2BEWDOmLLJ-89" style="edgeStyle=orthogonalEdgeStyle;rounded=0;orthogonalLoop=1;jettySize=auto;html=1;fontSize=42;" edge="1" parent="1" source="QX7i4axo8P2BEWDOmLLJ-53" target="QX7i4axo8P2BEWDOmLLJ-81">
          <mxGeometry relative="1" as="geometry" />
        </mxCell>
        <mxCell id="QX7i4axo8P2BEWDOmLLJ-53" value="&lt;span style=&quot;font-size: 22px;&quot;&gt;A2000 Seller Central Microservice&lt;/span&gt;" style="rounded=1;whiteSpace=wrap;html=1;fillColor=#f8cecc;strokeColor=#b85450;" vertex="1" parent="1">
          <mxGeometry x="543" y="-2040" width="668" height="110" as="geometry" />
        </mxCell>
        <mxCell id="QX7i4axo8P2BEWDOmLLJ-73" style="edgeStyle=orthogonalEdgeStyle;rounded=0;orthogonalLoop=1;jettySize=auto;html=1;entryX=0.5;entryY=1;entryDx=0;entryDy=0;entryPerimeter=0;fontSize=22;" edge="1" parent="1" source="QX7i4axo8P2BEWDOmLLJ-57" target="QX7i4axo8P2BEWDOmLLJ-62">
          <mxGeometry relative="1" as="geometry" />
        </mxCell>
        <mxCell id="QX7i4axo8P2BEWDOmLLJ-85" style="edgeStyle=orthogonalEdgeStyle;rounded=0;orthogonalLoop=1;jettySize=auto;html=1;exitX=1;exitY=0.25;exitDx=0;exitDy=0;entryX=0.142;entryY=1.008;entryDx=0;entryDy=0;fontSize=42;entryPerimeter=0;" edge="1" parent="1" source="QX7i4axo8P2BEWDOmLLJ-57" target="QX7i4axo8P2BEWDOmLLJ-53">
          <mxGeometry relative="1" as="geometry">
            <Array as="points">
              <mxPoint x="590" y="-1670" />
              <mxPoint x="590" y="-1850" />
              <mxPoint x="638" y="-1850" />
            </Array>
          </mxGeometry>
        </mxCell>
        <mxCell id="QX7i4axo8P2BEWDOmLLJ-57" value="&lt;span style=&quot;font-size: 22px;&quot;&gt;Shopify MS&lt;/span&gt;" style="shape=hexagon;perimeter=hexagonPerimeter2;whiteSpace=wrap;html=1;fixedSize=1;fillColor=#fff2cc;strokeColor=#d6b656;" vertex="1" parent="1">
          <mxGeometry x="270" y="-1710" width="270" height="150" as="geometry" />
        </mxCell>
        <mxCell id="QX7i4axo8P2BEWDOmLLJ-74" style="edgeStyle=orthogonalEdgeStyle;rounded=0;orthogonalLoop=1;jettySize=auto;html=1;fontSize=22;" edge="1" parent="1" source="QX7i4axo8P2BEWDOmLLJ-59" target="QX7i4axo8P2BEWDOmLLJ-62">
          <mxGeometry relative="1" as="geometry" />
        </mxCell>
        <mxCell id="QX7i4axo8P2BEWDOmLLJ-86" style="edgeStyle=orthogonalEdgeStyle;rounded=0;orthogonalLoop=1;jettySize=auto;html=1;entryX=0.581;entryY=1.048;entryDx=0;entryDy=0;entryPerimeter=0;fontSize=42;" edge="1" parent="1" source="QX7i4axo8P2BEWDOmLLJ-59" target="QX7i4axo8P2BEWDOmLLJ-53">
          <mxGeometry relative="1" as="geometry">
            <Array as="points">
              <mxPoint x="931" y="-1635" />
            </Array>
          </mxGeometry>
        </mxCell>
        <mxCell id="QX7i4axo8P2BEWDOmLLJ-59" value="&lt;span style=&quot;font-size: 22px;&quot;&gt;Magento MS&lt;/span&gt;" style="shape=hexagon;perimeter=hexagonPerimeter2;whiteSpace=wrap;html=1;fixedSize=1;fillColor=#fff2cc;strokeColor=#d6b656;" vertex="1" parent="1">
          <mxGeometry x="620" y="-1710" width="270" height="150" as="geometry" />
        </mxCell>
        <mxCell id="QX7i4axo8P2BEWDOmLLJ-75" style="edgeStyle=orthogonalEdgeStyle;rounded=0;orthogonalLoop=1;jettySize=auto;html=1;entryX=0;entryY=0;entryDx=0;entryDy=122.5;entryPerimeter=0;fontSize=22;" edge="1" parent="1" source="QX7i4axo8P2BEWDOmLLJ-60" target="QX7i4axo8P2BEWDOmLLJ-62">
          <mxGeometry relative="1" as="geometry" />
        </mxCell>
        <mxCell id="QX7i4axo8P2BEWDOmLLJ-87" style="edgeStyle=orthogonalEdgeStyle;rounded=0;orthogonalLoop=1;jettySize=auto;html=1;exitX=0;exitY=0.5;exitDx=0;exitDy=0;fontSize=42;" edge="1" parent="1" source="QX7i4axo8P2BEWDOmLLJ-60" target="QX7i4axo8P2BEWDOmLLJ-53">
          <mxGeometry relative="1" as="geometry">
            <Array as="points">
              <mxPoint x="930" y="-1635" />
            </Array>
          </mxGeometry>
        </mxCell>
        <mxCell id="QX7i4axo8P2BEWDOmLLJ-60" value="&lt;span style=&quot;font-size: 22px;&quot;&gt;Lazada MS&lt;/span&gt;" style="shape=hexagon;perimeter=hexagonPerimeter2;whiteSpace=wrap;html=1;fixedSize=1;fillColor=#fff2cc;strokeColor=#d6b656;" vertex="1" parent="1">
          <mxGeometry x="970" y="-1710" width="270" height="150" as="geometry" />
        </mxCell>
        <mxCell id="QX7i4axo8P2BEWDOmLLJ-76" style="edgeStyle=orthogonalEdgeStyle;rounded=0;orthogonalLoop=1;jettySize=auto;html=1;entryX=0.5;entryY=0;entryDx=0;entryDy=0;entryPerimeter=0;fontSize=22;" edge="1" parent="1" source="QX7i4axo8P2BEWDOmLLJ-61" target="QX7i4axo8P2BEWDOmLLJ-62">
          <mxGeometry relative="1" as="geometry">
            <Array as="points">
              <mxPoint x="1270" y="-1635" />
              <mxPoint x="1270" y="-1336" />
            </Array>
          </mxGeometry>
        </mxCell>
        <mxCell id="QX7i4axo8P2BEWDOmLLJ-88" style="edgeStyle=orthogonalEdgeStyle;rounded=0;orthogonalLoop=1;jettySize=auto;html=1;entryX=1;entryY=0.75;entryDx=0;entryDy=0;fontSize=42;" edge="1" parent="1" source="QX7i4axo8P2BEWDOmLLJ-61" target="QX7i4axo8P2BEWDOmLLJ-53">
          <mxGeometry relative="1" as="geometry" />
        </mxCell>
        <mxCell id="QX7i4axo8P2BEWDOmLLJ-61" value="&lt;span style=&quot;font-size: 22px;&quot;&gt;Shopee MS&lt;/span&gt;" style="shape=hexagon;perimeter=hexagonPerimeter2;whiteSpace=wrap;html=1;fixedSize=1;fillColor=#fff2cc;strokeColor=#d6b656;" vertex="1" parent="1">
          <mxGeometry x="1320" y="-1710" width="270" height="150" as="geometry" />
        </mxCell>
        <mxCell id="QX7i4axo8P2BEWDOmLLJ-62" value="" style="shape=cylinder3;whiteSpace=wrap;html=1;boundedLbl=1;backgroundOutline=1;size=15;rotation=91;fillColor=#ffe6cc;strokeColor=#d79b00;" vertex="1" parent="1">
          <mxGeometry x="834.5" y="-1570" width="85" height="460" as="geometry" />
        </mxCell>
        <mxCell id="QX7i4axo8P2BEWDOmLLJ-64" value="Storage Service" style="text;html=1;strokeColor=none;fillColor=none;align=center;verticalAlign=middle;whiteSpace=wrap;rounded=0;fontSize=22;" vertex="1" parent="1">
          <mxGeometry x="808.5" y="-1355" width="193" height="30" as="geometry" />
        </mxCell>
        <mxCell id="QX7i4axo8P2BEWDOmLLJ-80" value="A2000 Seller Central Architecture&amp;nbsp;" style="text;html=1;strokeColor=none;fillColor=none;align=center;verticalAlign=middle;whiteSpace=wrap;rounded=0;fontSize=42;" vertex="1" parent="1">
          <mxGeometry x="587" y="-2400" width="580" height="30" as="geometry" />
        </mxCell>
        <mxCell id="QX7i4axo8P2BEWDOmLLJ-90" style="edgeStyle=orthogonalEdgeStyle;rounded=0;orthogonalLoop=1;jettySize=auto;html=1;fontSize=42;" edge="1" parent="1" source="QX7i4axo8P2BEWDOmLLJ-81" target="QX7i4axo8P2BEWDOmLLJ-53">
          <mxGeometry relative="1" as="geometry" />
        </mxCell>
        <mxCell id="QX7i4axo8P2BEWDOmLLJ-81" value="&lt;span style=&quot;font-size: 22px;&quot;&gt;A2000 ERP&lt;br&gt;&lt;/span&gt;" style="shape=dataStorage;whiteSpace=wrap;html=1;fixedSize=1;rotation=0;fillColor=#e1d5e7;strokeColor=#9673a6;labelBackgroundColor=none;" vertex="1" parent="1">
          <mxGeometry x="1490" y="-2140" width="220" height="160" as="geometry" />
        </mxCell>
      </root>
    </mxGraphModel>
  </diagram>
</mxfile>
